P1
16 16
0000000000000000
0111111110000000
0100000011000000
0100000001100000
0100000000110000
0100011000011000
0100011000001100
0100000000000110
0110000000000010
0011000000000010
0001100000000110
0000110000001100
0000011000011000
0000001100110000
0000000111100000
0000000000000000
